<svg xmlns="http://www.w3.org/2000/svg" version="1.1" xmlns:xlink="http://www.w3.org/1999/xlink" width="2000" height="585" viewBox="0 0 2000 585"><g transform="matrix(1,0,0,1,-0.9188496733230522,3.7001102469184275)"><svg viewBox="0 0 396 116" data-background-color="#3d2200" preserveAspectRatio="xMidYMid meet" height="585" width="2000" xmlns="http://www.w3.org/2000/svg" xmlns:xlink="http://www.w3.org/1999/xlink"><g id="tight-bounds" transform="matrix(1,0,0,1,0.18193223531795866,0.054318360206480065)"><svg viewBox="0 0 395.52 115.89502227692228" height="115.89502227692228" width="395.52"><g><svg viewBox="0 0 586.2324302422028 171.77745894613264" height="115.89502227692228" width="395.52"><g transform="matrix(1,0,0,1,0,23.740589478083457)"><svg viewBox="0 0 395.52 124.29627998996573" height="124.29627998996573" width="395.52"><g id="textblocktransform"><svg viewBox="0 0 395.52 124.29627998996573" height="124.29627998996573" width="395.52" id="textblock"><g><svg viewBox="0 0 395.52 80.20654888103651" height="80.20654888103651" width="395.52"><g transform="matrix(1,0,0,1,0,0)"><svg width="395.52" viewBox="2.75 -38.1 254.68 51.650000000000006" height="80.20654888103651" data-palette-color="#f8fddd"><path d="M18.8 0.45Q11.8 0.1 7.28-4.75 2.75-9.6 2.75-17.65 2.75-25.7 7.63-30.73 12.5-35.75 19.83-35.75 27.15-35.75 32.05-30.73 36.95-25.7 36.95-17.5L36.95-17.5Q36.95-10.7 33.27-6.08 29.6-1.45 23.6-0.05L23.6-0.05Q26 1.9 29 3.15L29 3.15Q33.6 5.05 36.1 5.05L36.1 5.05 35.1 8.65Q32.1 8.65 29.28 7.75 26.45 6.85 24.4 5.4L24.4 5.4Q21 2.95 18.8 0.45L18.8 0.45ZM7.95-17.63Q7.95-11.2 11.6-7.35 15.25-3.5 20.13-3.5 25-3.5 28.33-7.25 31.65-11 31.65-17.53 31.65-24.05 28.33-27.88 25-31.7 19.75-31.7 14.5-31.7 11.23-27.88 7.95-24.05 7.95-17.63ZM65.85-3.4L70.05-3.4 70.05-0.4Q68.1 0.55 65.65 0.55 63.2 0.55 62.25-0.48 61.3-1.5 61.15-3.5L61.15-3.5Q60.5-2.75 59.65-2 58.8-1.25 56.82-0.35 54.85 0.55 52.7 0.55L52.7 0.55Q48.8 0.55 46.85-1.63 44.9-3.8 44.9-7.55L44.9-7.55 44.9-21.65 40.7-21.65 40.7-24.65Q42.65-25.6 45.22-25.6 47.8-25.6 48.7-24.38 49.6-23.15 49.6-20.65L49.6-20.65 49.6-9.3Q49.6-6.35 50.57-4.9 51.55-3.45 54.1-3.45 56.65-3.45 58.45-4.42 60.25-5.4 61.15-6.45L61.15-6.45 61.15-21.65 56.95-21.65 56.95-24.65Q58.9-25.6 61.47-25.6 64.05-25.6 64.95-24.38 65.85-23.15 65.85-20.65L65.85-20.65 65.85-3.4ZM86.75-2.15L86.75 0 73.6 0 73.6-2.15 77.8-3.8 77.8-21.65 73.6-21.65 73.6-24.65Q75.55-25.6 78.12-25.6 80.7-25.6 81.6-24.38 82.5-23.15 82.5-20.65L82.5-20.65 82.5-3.8 86.75-2.15ZM82.7-31.35Q81.55-30.2 79.9-30.2 78.25-30.2 77.1-31.35 75.95-32.5 75.95-34.15 75.95-35.8 77.1-36.95 78.25-38.1 79.9-38.1 81.55-38.1 82.7-36.95 83.85-35.8 83.85-34.15 83.85-32.5 82.7-31.35ZM103.09 0.5L103.09 0.5Q97.44 0.5 93.92-2.73 90.39-5.95 90.39-12.15 90.39-18.35 93.99-21.98 97.59-25.6 102.39-25.6L102.39-25.6Q113.79-25.6 113.79-12.1L113.79-12.1 95.24-12.1 95.24-11.85Q95.24-8.3 97.74-5.85 100.24-3.4 104.54-3.4L104.54-3.4Q106.39-3.4 108.04-3.83 109.69-4.25 110.44-4.7L110.44-4.7 111.14-5.1 112.59-2.5Q112.44-2.4 112.17-2.18 111.89-1.95 110.99-1.45 110.09-0.95 109.04-0.55L109.04-0.55Q106.39 0.5 103.09 0.5ZM109.14-15.3Q108.89-18.4 107.12-20.03 105.34-21.65 102.52-21.65 99.69-21.65 97.84-20.08 95.99-18.5 95.44-15.3L95.44-15.3 109.14-15.3ZM125.14-10.95Q125.14-6.65 126.44-5.1 127.74-3.55 130.39-3.55 133.04-3.55 134.74-4.35L134.74-4.35 135.74-1.85Q135.54-1.6 135.17-1.2 134.79-0.8 133.29-0.13 131.79 0.55 129.99 0.55L129.99 0.55Q125.44 0.55 122.94-2.02 120.44-4.6 120.44-9.55L120.44-9.55 120.44-21.05 117.79-21.05 117.79-24 122.59-28.8 125.14-28.8 125.14-25 133.54-25 133.54-21.05 125.14-21.05 125.14-10.95ZM154.14 0L154.14 0 138.74 0 138.74-2.2 143.29-3.85 143.29-31.45 138.74-33.1 138.74-35.3 154.19-35.3Q162.29-35.3 167.34-30.5 172.39-25.7 172.39-17.7 172.39-9.7 167.31-4.85 162.24 0 154.14 0ZM148.34-31.6L148.34-3.7 154.74-3.7Q160.14-3.7 163.61-7.38 167.09-11.05 167.09-17.6 167.09-24.15 163.59-27.88 160.09-31.6 154.74-31.6L154.74-31.6 148.34-31.6ZM190.34-2.15L190.34 0 177.19 0 177.19-2.15 181.39-3.8 181.39-21.65 177.19-21.65 177.19-24.65Q179.14-25.6 181.59-25.6 184.04-25.6 184.99-24.55 185.94-23.5 186.04-21.45L186.04-21.45Q186.54-22.95 188.09-24.15L188.09-24.15Q189.94-25.6 192.99-25.6L192.99-25.6Q194.34-25.6 195.56-25.25 196.79-24.9 197.34-24.55L197.34-24.55 197.94-24.2 197.94-18.3 194.94-18.3 194.29-21.3Q193.99-21.6 192.64-21.6 191.29-21.6 190.04-21.23 188.79-20.85 188.09-20.3L188.09-20.3Q186.69-19.1 186.09-17.85L186.09-17.85 186.09-3.8 190.34-2.15ZM222.88-3.08Q219.23 0.55 213.68 0.55 208.13 0.55 204.48-3.08 200.83-6.7 200.83-12.5 200.83-18.3 204.48-21.95 208.13-25.6 213.68-25.6 219.23-25.6 222.88-21.95 226.53-18.3 226.53-12.5 226.53-6.7 222.88-3.08ZM207.93-5.83Q210.18-3.4 213.68-3.4 217.18-3.4 219.43-5.83 221.68-8.25 221.68-12.35 221.68-16.45 219.41-19.05 217.13-21.65 213.68-21.65 210.23-21.65 207.96-19.05 205.68-16.45 205.68-12.35 205.68-8.25 207.93-5.83ZM243.38 11.4L243.38 13.55 230.23 13.55 230.23 11.4 234.48 9.75 234.48-21.85 230.28-21.85 230.28-24.6Q232.23-25.55 234.56-25.55 236.88-25.55 237.88-24.7 238.88-23.85 239.08-22.2L239.08-22.2Q241.53-25.6 246.38-25.6L246.38-25.6Q250.33-25.6 253.68-22.9L253.68-22.9Q255.38-21.5 256.41-18.93 257.43-16.35 257.43-12.95 257.43-9.55 256.28-6.88 255.13-4.2 253.18-2.65L253.18-2.65Q249.23 0.5 243.98 0.5L243.98 0.5Q241.88 0.5 239.18-0.2L239.18-0.2 239.18 9.75 243.38 11.4ZM243.98-3.45L243.98-3.45Q248.03-3.45 250.31-5.85 252.58-8.25 252.58-12.55 252.58-16.85 250.38-19.28 248.18-21.7 245.68-21.7L245.68-21.7Q241.33-21.7 239.18-18.95L239.18-18.95 239.18-4.35Q241.98-3.45 243.98-3.45Z" opacity="1" transform="matrix(1,0,0,1,0,0)" fill="#ffffff" class="wordmark-text-0" data-fill-palette-color="primary" id="text-0"></path></svg></g></svg></g><g transform="matrix(1,0,0,1,163.310208,99.14139011467608)"><svg viewBox="0 0 232.209792 25.154889875289637" height="25.154889875289637" width="232.209792"><g transform="matrix(1,0,0,1,0,0)"><svg width="232.209792" viewBox="1.98 -35.35 330.800416666664 35.84" height="25.154889875289637" data-palette-color="#f8fddd"><path d="M11.13 0L11.13 0 2.17 0Q1.98 0 1.98-0.24L1.98-0.24 2.08-34.59Q2.08-34.79 2.27-34.79L2.27-34.79 11.89-34.79Q14.7-34.79 16.99-33.42L16.99-33.42Q19.24-32.06 20.53-29.8 21.83-27.54 21.83-24.9L21.83-24.9Q21.83-22.75 20.85-20.9 19.87-19.04 18.53-17.9L18.53-17.9Q19.97-16.46 20.78-14.55 21.58-12.65 21.58-10.55L21.58-10.55Q21.58-7.64 20.19-5.25L20.19-5.25Q18.77-2.86 16.41-1.43 14.04 0 11.13 0ZM11.89-28.86L11.89-28.86 8.08-28.86 8.08-21 11.89-21Q13.62-21 14.7-22.23 15.77-23.46 15.77-24.9L15.77-24.9Q15.77-26.49 14.62-27.67 13.48-28.86 11.89-28.86ZM11.13-14.94L11.13-14.94 8.08-14.94 8.03-6.1 11.13-6.1Q12.94-6.1 14.23-7.42 15.53-8.74 15.53-10.55L15.53-10.55Q15.53-12.35 14.23-13.65 12.94-14.94 11.13-14.94ZM34.37 0.49L34.37 0.49Q31.74 0.49 29.49-0.88L29.49-0.88Q27.24-2.25 25.91-4.55 24.58-6.86 24.58-9.59L24.58-9.59 24.68-34.59Q24.68-34.79 24.88-34.79L24.88-34.79 30.49-34.79Q30.69-34.79 30.69-34.59L30.69-34.59 30.69-9.59Q30.69-7.91 31.76-6.73 32.83-5.54 34.37-5.54L34.37-5.54Q35.98-5.54 37.06-6.73 38.13-7.91 38.13-9.59L38.13-9.59 38.13-34.59Q38.13-34.79 38.33-34.79L38.33-34.79 43.94-34.79Q44.14-34.79 44.14-34.59L44.14-34.59 44.24-9.59Q44.24-6.84 42.92-4.52L42.92-4.52Q41.57-2.22 39.35-0.87 37.13 0.49 34.37 0.49ZM54.07 0L54.07 0 48.41 0Q48.16 0 48.16-0.24L48.16-0.24 48.21-34.59Q48.21-34.79 48.41-34.79L48.41-34.79 54.02-34.79Q54.22-34.79 54.22-34.59L54.22-34.59 54.27-0.24Q54.27 0 54.07 0ZM75.02 0L75.02 0 58.85 0Q58.66 0 58.66-0.24L58.66-0.24 58.71-34.55Q58.71-34.79 58.95-34.79L58.95-34.79 64.52-34.79Q64.76-34.79 64.76-34.55L64.76-34.55 64.71-6.15 75.02-6.15Q75.26-6.15 75.26-5.91L75.26-5.91 75.26-0.24Q75.26 0 75.02 0ZM89.17 0L89.17 0 83.53 0Q83.32 0 83.32-0.24L83.32-0.24 83.32-28.76 76.82-28.76Q76.58-28.76 76.58-29L76.58-29 76.63-34.59Q76.63-34.79 76.82-34.79L76.82-34.79 95.82-34.79Q96.08-34.79 96.08-34.59L96.08-34.59 96.08-29Q96.08-28.76 95.89-28.76L95.89-28.76 89.32-28.76 89.37-0.24Q89.37 0 89.17 0ZM117.34 0L117.34 0 111.73 0Q111.48 0 111.48-0.24L111.48-0.24 111.58-34.59Q111.58-34.79 111.78-34.79L111.78-34.79 127.79-34.79Q128.04-34.79 128.04-34.59L128.04-34.59 128.04-28.96Q128.04-28.76 127.84-28.76L127.84-28.76 117.59-28.76 117.59-21 127.84-21Q128.04-21 128.04-20.75L128.04-20.75 128.09-15.09Q128.09-14.89 127.84-14.89L127.84-14.89 117.59-14.89 117.59-0.24Q117.59 0 117.34 0ZM141.78 0.49L141.78 0.49Q139.12 0.49 136.87-0.88L136.87-0.88Q134.65-2.25 133.3-4.53 131.94-6.81 131.94-9.55L131.94-9.55 131.99-25.39Q131.99-28.17 133.33-30.4L133.33-30.4Q134.65-32.64 136.9-34 139.14-35.35 141.78-35.35L141.78-35.35Q144.51-35.35 146.69-34.01L146.69-34.01Q148.88-32.67 150.21-30.41 151.55-28.15 151.55-25.39L151.55-25.39 151.59-9.55Q151.59-6.81 150.28-4.54L150.28-4.54Q148.93-2.25 146.71-0.88 144.49 0.49 141.78 0.49ZM141.78-5.54L141.78-5.54Q143.29-5.54 144.42-6.77 145.54-8.01 145.54-9.55L145.54-9.55 145.49-25.39Q145.49-27.05 144.44-28.2 143.39-29.35 141.78-29.35L141.78-29.35Q140.24-29.35 139.14-28.22 138.04-27.1 138.04-25.39L138.04-25.39 138.04-9.55Q138.04-7.91 139.14-6.73 140.24-5.54 141.78-5.54ZM161.21 0L161.21 0 155.55 0Q155.35 0 155.35-0.24L155.35-0.24 155.45-34.59Q155.45-34.79 155.64-34.79L155.64-34.79 165.75-34.79Q168.46-34.79 170.73-33.47L170.73-33.47Q173-32.15 174.36-29.93 175.71-27.71 175.71-24.9L175.71-24.9Q175.71-23.07 175.15-21.58L175.15-21.58Q174.59-20.09 173.84-19.07 173.1-18.04 172.49-17.55L172.49-17.55Q175.2-14.55 175.2-10.5L175.2-10.5 175.25-0.24Q175.25 0 175 0L175 0 169.34 0Q169.15 0 169.15-0.15L169.15-0.15 169.15-10.5Q169.15-12.3 167.88-13.62 166.61-14.94 164.75-14.94L164.75-14.94 161.45-14.94 161.41-0.24Q161.41 0 161.21 0ZM165.75-28.81L165.75-28.81 161.45-28.81 161.45-20.95 165.75-20.95Q167.29-20.95 168.5-22.09 169.71-23.24 169.71-24.9L169.71-24.9Q169.71-26.49 168.53-27.65 167.36-28.81 165.75-28.81ZM198.29 0L198.29 0 192.68 0Q192.43 0 192.43-0.24L192.43-0.24 192.53-34.59Q192.53-34.79 192.72-34.79L192.72-34.79 202.34-34.79Q206.93-34.79 209.61-31.99 212.28-29.2 212.28-24.39L212.28-24.39Q212.28-20.87 210.89-18.26L210.89-18.26Q209.47-15.67 207.23-14.26 204.98-12.84 202.34-12.84L202.34-12.84 198.53-12.84 198.53-0.24Q198.53 0 198.29 0ZM202.34-28.86L202.34-28.86 198.53-28.81 198.53-18.9 202.34-18.9Q203.93-18.9 205.1-20.42 206.27-21.95 206.27-24.39L206.27-24.39Q206.27-26.34 205.22-27.6 204.17-28.86 202.34-28.86ZM221.12 0L221.12 0 215.45 0Q215.26 0 215.26-0.24L215.26-0.24 215.35-34.59Q215.35-34.79 215.55-34.79L215.55-34.79 225.66-34.79Q228.37-34.79 230.64-33.47L230.64-33.47Q232.91-32.15 234.26-29.93 235.62-27.71 235.62-24.9L235.62-24.9Q235.62-23.07 235.06-21.58L235.06-21.58Q234.49-20.09 233.75-19.07 233-18.04 232.39-17.55L232.39-17.55Q235.1-14.55 235.1-10.5L235.1-10.5 235.15-0.24Q235.15 0 234.91 0L234.91 0 229.24 0Q229.05 0 229.05-0.15L229.05-0.15 229.05-10.5Q229.05-12.3 227.78-13.62 226.51-14.94 224.66-14.94L224.66-14.94 221.36-14.94 221.31-0.24Q221.31 0 221.12 0ZM225.66-28.81L225.66-28.81 221.36-28.81 221.36-20.95 225.66-20.95Q227.19-20.95 228.4-22.09 229.61-23.24 229.61-24.9L229.61-24.9Q229.61-26.49 228.44-27.65 227.27-28.81 225.66-28.81ZM245.26 0L245.26 0 239.59 0Q239.35 0 239.35-0.24L239.35-0.24 239.4-34.59Q239.4-34.79 239.59-34.79L239.59-34.79 245.21-34.79Q245.4-34.79 245.4-34.59L245.4-34.59 245.45-0.24Q245.45 0 245.26 0ZM261.52 0L261.52 0 255.46 0Q255.24 0 255.22-0.24L255.22-0.24 248.31-34.59Q248.26-34.79 248.5-34.79L248.5-34.79 254.17-34.79Q254.36-34.79 254.41-34.59L254.41-34.59 258.51-11.69 262.52-34.59Q262.57-34.79 262.76-34.79L262.76-34.79 268.35-34.79Q268.62-34.79 268.55-34.59L268.55-34.59 261.76-0.24Q261.74 0 261.52 0ZM269.79-0.24L269.79-0.24 275.99-34.59Q276.04-34.79 276.23-34.79L276.23-34.79 283.49-34.79Q283.68-34.79 283.73-34.59L283.73-34.59 289.69-0.24Q289.71 0 289.49 0L289.49 0 283.95 0Q283.71 0 283.68-0.24L283.68-0.24 283.14-3.91 276.33-3.91 275.8-0.24Q275.77 0 275.55 0L275.55 0 269.98 0Q269.79 0 269.79-0.24ZM282.14-9.25L280.09-23.29 279.8-25.15 279.58-23.29 277.33-9.25 282.14-9.25ZM302.01 0.49L302.01 0.49Q299.3 0.49 297.06-0.88L297.06-0.88Q294.84-2.25 293.53-4.55 292.22-6.86 292.22-9.69L292.22-9.69 292.27-25.29Q292.27-28.08 293.54-30.32L293.54-30.32Q294.81-32.59 297.05-33.97 299.28-35.35 302.01-35.35L302.01-35.35Q304.8-35.35 306.97-34.01L306.97-34.01Q309.17-32.67 310.47-30.38 311.78-28.1 311.78-25.29L311.78-25.29 311.78-23Q311.78-22.8 311.58-22.8L311.58-22.8 305.97-22.8Q305.77-22.8 305.77-23L305.77-23 305.77-25.29Q305.77-26.95 304.7-28.15 303.62-29.35 302.01-29.35L302.01-29.35Q300.23-29.35 299.28-28.13 298.33-26.9 298.33-25.29L298.33-25.29 298.33-9.69Q298.33-7.86 299.4-6.7 300.48-5.54 302.01-5.54L302.01-5.54Q303.62-5.54 304.7-6.82 305.77-8.11 305.77-9.69L305.77-9.69 305.77-12.01Q305.77-12.21 305.97-12.21L305.97-12.21 311.63-12.21Q311.83-12.21 311.83-12.01L311.83-12.01 311.83-9.69Q311.83-6.88 310.51-4.57L310.51-4.57Q309.17-2.27 306.97-0.89 304.77 0.49 302.01 0.49ZM325.86 0L325.86 0 320.13 0Q319.96 0 319.96-0.2L319.96-0.2 320-14.4 313.31-34.59Q313.27-34.79 313.46-34.79L313.46-34.79 319.03-34.79Q319.27-34.79 319.32-34.59L319.32-34.59 323.01-21.14 326.77-34.59Q326.82-34.79 327.01-34.79L327.01-34.79 332.63-34.79Q332.82-34.79 332.77-34.59L332.77-34.59 326.01-14.6 326.06-0.2Q326.06 0 325.86 0Z" opacity="1" transform="matrix(1,0,0,1,0,0)" fill="#ffffff" class="slogan-text-1" data-fill-palette-color="secondary" id="text-1"></path></svg></g></svg></g></svg></g></svg></g><g transform="matrix(1,0,0,1,414.45484123363957,0)"><svg viewBox="0 0 171.77758900856318 171.77745894613264" height="171.77745894613264" width="171.77758900856318"><g><svg xmlns="http://www.w3.org/2000/svg" xmlns:xlink="http://www.w3.org/1999/xlink" version="1.1" x="0" y="0" viewBox="-0.00003776220633651731 0 100.00007571565638 100" enable-background="new 0 0 100 100" xml:space="preserve" id="icon-0" width="171.77758900856318" height="171.77745894613264" class="icon-icon-0" data-fill-palette-color="accent"><g fill="#aecf75" data-fill-palette-color="accent"><path d="M85.356 14.644A49.9 49.9 0 0 0 69.461 3.93 49.6 49.6 0 0 0 57.913 0.629 50.4 50.4 0 0 0 50.001 0C45.595 0 41.277 0.574 37.093 1.691A50 50 0 0 0 30.537 3.929 49.7 49.7 0 0 0 19.061 10.732 51 51 0 0 0 14.644 14.643 49.86 49.86 0 0 0 0 50.001C0 60.009 2.934 69.628 8.493 77.885L0 100 22.116 91.507C30.372 97.066 39.992 100 50.001 100 51.084 100 52.16 99.953 53.231 99.885A49.5 49.5 0 0 0 69.461 96.071 49.9 49.9 0 0 0 85.356 85.355 49.85 49.85 0 0 0 100 50.001C100 43.251 98.677 36.701 96.07 30.536A49.9 49.9 0 0 0 85.356 14.644M81.561 84.18A46.5 46.5 0 0 1 61.274 95.163L57.151 87.215C52.195 76.821 54.904 75.173 51.845 69.386 48.54 63.13 32.79 36.428 32.79 36.428 31.934 34.809 30.29 33.987 28.602 34.877 26.914 35.771 26.77 37.675 27.626 39.294L35.147 54.69C34.292 53.071 32.228 52.483 30.54 53.377 28.85 54.271 28.175 56.306 29.03 57.925L30.678 61.045C29.823 59.426 27.76 58.837 26.071 59.731S23.707 62.66 24.562 64.279L26.362 67.683C25.506 66.066 23.442 65.475 21.753 66.369S19.389 69.298 20.244 70.917L26.641 83.021C28.641 86.805 35.967 90.434 37.367 93.082 37.433 93.208 38.032 94.017 38.933 95.213A46.4 46.4 0 0 1 22.671 87.645L5.928 94.072 12.353 77.341A46.28 46.28 0 0 1 3.448 49.999C3.448 25.319 22.76 5.072 47.063 3.551 47.286 5.915 47.516 7.876 47.688 8.349 49.161 12.388 49.477 13.462 49.317 15.35 48.86 20.731 38.569 30.648 41.359 33.503 42.812 34.989 45.777 34.886 46.785 34.847 49.398 34.746 50.077 36.602 48.955 38.114 47.218 40.457 45.925 40.605 45.662 42.224 45.468 43.417 46.567 44.279 47.923 44.384 51.364 44.65 49.005 45.328 48.3 46.494 47.245 48.242 48.446 49.988 49.277 50.022 50.106 50.056 53.337 48.903 54.678 50.619 56.171 52.528 54.568 55.307 56.432 58.457 59.036 62.857 61.622 63.486 68.657 62.116 75.689 60.744 76.084 59.505 78.108 62.503 81.549 67.598 82.123 76.881 81.561 84.18" fill="#ffffff" data-fill-palette-color="accent"></path></g></svg></g></svg></g></svg></g><defs></defs></svg><rect width="395.52" height="115.89502227692228" fill="none" stroke="none" visibility="hidden"></rect></g></svg></g></svg>