<svg xmlns="http://www.w3.org/2000/svg" version="1.1" xmlns:xlink="http://www.w3.org/1999/xlink" width="800" height="800" viewBox="0 0 800 800"><g transform="matrix(1,0,0,1,-2.1625000000000227,16.50782619118678)"><svg viewBox="0 0 96 96" data-background-color="#3d2200" preserveAspectRatio="xMidYMid meet" height="800" width="800" xmlns="http://www.w3.org/2000/svg" xmlns:xlink="http://www.w3.org/1999/xlink"><g id="tight-bounds" transform="matrix(1,0,0,1,0.25950000000000273,0.25953614700557637)"><svg viewBox="0 0 95.481 95.48092770598886" height="95.48092770598886" width="95.481"><g><svg viewBox="0 0 95.481 95.48092770598886" height="95.48092770598886" width="95.481"><g><svg viewBox="0 0 95.481 95.48092770598886" height="95.48092770598886" width="95.481"><g id="textblocktransform"><svg viewBox="0 0 95.481 95.48092770598886" height="95.48092770598886" width="95.481" id="textblock"><g><svg viewBox="0 0 95.481 95.48092770598886" height="95.48092770598886" width="95.481"><g><svg viewBox="0 0 95.481 95.48092770598886" height="95.48092770598886" width="95.481"><g><svg xmlns="http://www.w3.org/2000/svg" xmlns:xlink="http://www.w3.org/1999/xlink" version="1.1" x="0" y="0" viewBox="-0.00003776220633651731 0 100.00007571565638 100" enable-background="new 0 0 100 100" xml:space="preserve" id="icon-0" width="95.481" height="95.48092770598886" class="icon-icon-0" data-fill-palette-color="accent"><g fill="#aecf75" data-fill-palette-color="accent"><path d="M85.356 14.644A49.9 49.9 0 0 0 69.461 3.93 49.6 49.6 0 0 0 57.913 0.629 50.4 50.4 0 0 0 50.001 0C45.595 0 41.277 0.574 37.093 1.691A50 50 0 0 0 30.537 3.929 49.7 49.7 0 0 0 19.061 10.732 51 51 0 0 0 14.644 14.643 49.86 49.86 0 0 0 0 50.001C0 60.009 2.934 69.628 8.493 77.885L0 100 22.116 91.507C30.372 97.066 39.992 100 50.001 100 51.084 100 52.16 99.953 53.231 99.885A49.5 49.5 0 0 0 69.461 96.071 49.9 49.9 0 0 0 85.356 85.355 49.85 49.85 0 0 0 100 50.001C100 43.251 98.677 36.701 96.07 30.536A49.9 49.9 0 0 0 85.356 14.644M81.561 84.18A46.5 46.5 0 0 1 61.274 95.163L57.151 87.215C52.195 76.821 54.904 75.173 51.845 69.386 48.54 63.13 32.79 36.428 32.79 36.428 31.934 34.809 30.29 33.987 28.602 34.877 26.914 35.771 26.77 37.675 27.626 39.294L35.147 54.69C34.292 53.071 32.228 52.483 30.54 53.377 28.85 54.271 28.175 56.306 29.03 57.925L30.678 61.045C29.823 59.426 27.76 58.837 26.071 59.731S23.707 62.66 24.562 64.279L26.362 67.683C25.506 66.066 23.442 65.475 21.753 66.369S19.389 69.298 20.244 70.917L26.641 83.021C28.641 86.805 35.967 90.434 37.367 93.082 37.433 93.208 38.032 94.017 38.933 95.213A46.4 46.4 0 0 1 22.671 87.645L5.928 94.072 12.353 77.341A46.28 46.28 0 0 1 3.448 49.999C3.448 25.319 22.76 5.072 47.063 3.551 47.286 5.915 47.516 7.876 47.688 8.349 49.161 12.388 49.477 13.462 49.317 15.35 48.86 20.731 38.569 30.648 41.359 33.503 42.812 34.989 45.777 34.886 46.785 34.847 49.398 34.746 50.077 36.602 48.955 38.114 47.218 40.457 45.925 40.605 45.662 42.224 45.468 43.417 46.567 44.279 47.923 44.384 51.364 44.65 49.005 45.328 48.3 46.494 47.245 48.242 48.446 49.988 49.277 50.022 50.106 50.056 53.337 48.903 54.678 50.619 56.171 52.528 54.568 55.307 56.432 58.457 59.036 62.857 61.622 63.486 68.657 62.116 75.689 60.744 76.084 59.505 78.108 62.503 81.549 67.598 82.123 76.881 81.561 84.18" fill="#000000" data-fill-palette-color="accent"></path></g></svg></g></svg></g></svg></g></svg></g></svg></g></svg></g><defs></defs></svg><rect width="95.481" height="95.48092770598886" fill="none" stroke="none" visibility="hidden"></rect></g></svg></g></svg>